<svg xmlns="http://www.w3.org/2000/svg" viewBox="0 0 373.88 387.77"><defs><style>.cls-1{fill:#f08e34;}.cls-2,.cls-3{fill:#5da9dd;}.cls-3{font-size:67.48px;font-family:Poppins-Bold, Poppins;font-weight:700;}</style></defs><title>Asset 2MviKotlin</title><g id="Layer_2" data-name="Layer 2"><g id="Layer_1-2" data-name="Layer 1"><path class="cls-1" d="M281,232.84H73.41V25.28H281ZM84.66,221.59H269.72V36.53H84.66Z"/><path class="cls-2" d="M297.26,130.47l-7.53,5.94a42.34,42.34,0,0,1-11.84,22.82l-70.53,70.52a42.42,42.42,0,0,1-28.83,12.46l5,6.57v2.39l-5.28,7a42.46,42.46,0,0,0,29.11-12.46l86.42-86.43A42.46,42.46,0,0,0,305.54,137Zm-3.48-31.58L207.36,12.46A42.25,42.25,0,0,0,181.86.24l-6.35,8.07,6.17,7.81a42.48,42.48,0,0,1,25.68,12.25l70.53,70.52a42.45,42.45,0,0,1,12.46,31.4l5.89-4.47h2.39l7.57,5.76A42.57,42.57,0,0,0,293.78,98.89ZM170.85,6.94,176.15,0A42.42,42.42,0,0,0,147,12.46L60.6,98.89a42.52,42.52,0,0,0-12.46,28.55l8.1,6.4L64,127.7A42.5,42.5,0,0,1,76.5,98.89L147,28.37a42.53,42.53,0,0,1,28.82-12.46l-5-6.58Zm1.6,235A42.33,42.33,0,0,1,147,229.75L76.5,159.23a42.44,42.44,0,0,1-12.27-25.78l-6.62,5h-2.4l-6.89-5.24a42.5,42.5,0,0,0,12.28,26L147,245.66a42.39,42.39,0,0,0,25.72,12.25l6.14-7.76Z"/><rect class="cls-1" x="269.72" y="129.06" width="11.25" height="98.16"/><rect class="cls-1" x="79.04" y="221.59" width="98.16" height="11.25"/><rect class="cls-1" x="73.41" y="30.9" width="11.25" height="98.16"/><rect class="cls-1" x="177.19" y="25.28" width="98.16" height="11.25"/><text class="cls-3" transform="translate(0 346.88)">MVIKOTLIN</text><polygon class="cls-1" points="248.28 169.67 224.3 169.67 197.3 134.23 197.21 134.11 197.21 169.67 177.68 169.67 177.68 121.38 177.61 121.57 159.66 169.67 143.83 169.67 125.7 121.25 125.7 169.67 106.09 169.67 106.09 89.13 129.26 89.13 151.86 144.9 174.24 89.13 197.21 89.13 197.21 124.47 197.3 124.35 224.07 89.13 247.13 89.13 215.93 128.61 248.28 169.67"/><polyline class="cls-2" points="197.21 124.47 197.3 124.35 224.07 89.13 247.13 89.13 215.93 128.61 248.28 169.67 224.3 169.67 197.3 134.23 197.21 134.11"/></g></g></svg>