<svg xmlns="http://www.w3.org/2000/svg" viewBox="0 0 662.6 258.12"><defs><style>.cls-1,.cls-2{fill:#fff;}.cls-2{font-size:67.48px;font-family:Poppins-Bold, Poppins;font-weight:700;}</style></defs><title>Asset 5MviKotlin</title><g id="Layer_2" data-name="Layer 2"><g id="Layer_1-2" data-name="Layer 1"><path class="cls-1" d="M232.83,232.84H25.28V25.28H232.83ZM36.52,221.59H221.59V36.53H36.52Z"/><path class="cls-1" d="M249.12,130.47l-7.52,5.94a42.43,42.43,0,0,1-11.85,22.82l-70.53,70.52a42.42,42.42,0,0,1-28.83,12.46l5,6.57v2.39l-5.28,7a42.46,42.46,0,0,0,29.11-12.46l86.42-86.43A42.46,42.46,0,0,0,257.4,137Zm-3.48-31.58L159.22,12.46A42.23,42.23,0,0,0,133.72.24l-6.35,8.07,6.17,7.81a42.45,42.45,0,0,1,25.68,12.25l70.53,70.52a42.45,42.45,0,0,1,12.46,31.4l5.89-4.47h2.39l7.57,5.76A42.54,42.54,0,0,0,245.64,98.89ZM122.72,6.94,128,0A42.42,42.42,0,0,0,98.89,12.46L12.46,98.89A42.57,42.57,0,0,0,0,127.44l8.1,6.4,7.79-6.14A42.5,42.5,0,0,1,28.36,98.89L98.89,28.37a42.53,42.53,0,0,1,28.82-12.46l-5-6.58Zm1.59,235a42.35,42.35,0,0,1-25.42-12.22L28.36,159.23a42.44,42.44,0,0,1-12.27-25.78l-6.62,5H7.07L.18,133.25a42.5,42.5,0,0,0,12.28,26l86.43,86.43a42.39,42.39,0,0,0,25.72,12.25l6.14-7.76Z"/><rect class="cls-1" x="221.59" y="129.06" width="11.25" height="98.16"/><rect class="cls-1" x="30.9" y="221.59" width="98.16" height="11.25"/><rect class="cls-1" x="25.28" y="30.9" width="11.25" height="98.16"/><rect class="cls-1" x="129.05" y="25.28" width="98.16" height="11.25"/><text class="cls-2" transform="translate(288.72 152.78)">MVIKOTLIN</text><polygon class="cls-1" points="200.15 169.67 176.16 169.67 149.16 134.23 149.07 134.11 149.07 169.67 129.54 169.67 129.54 121.38 129.47 121.57 111.52 169.67 95.69 169.67 77.56 121.25 77.56 169.67 57.95 169.67 57.95 89.13 81.12 89.13 103.72 144.9 126.1 89.13 149.07 89.13 149.07 124.47 149.16 124.35 175.93 89.13 198.99 89.13 167.79 128.61 200.15 169.67"/><polyline class="cls-1" points="149.07 124.47 149.16 124.35 175.93 89.13 198.99 89.13 167.79 128.61 200.15 169.67 176.16 169.67 149.16 134.23 149.07 134.11"/></g></g></svg>